inDegrees=yes
name=ik_S44_A04_T01
DataType=double
version=3
OpenSimVersion=4.3-2021-08-27-4bc7ad9
endheader
time	pelvis_tilt	pelvis_list	pelvis_rotation	pelvis_tx	pelvis_ty	pelvis_tz	hip_flexion_r	hip_adduction_r	hip_rotation_r	knee_angle_r	knee_angle_r_beta	ankle_angle_r	subtalar_angle_r	mtp_angle_r	hip_flexion_l	hip_adduction_l	hip_rotation_l	knee_angle_l	knee_angle_l_beta	ankle_angle_l	subtalar_angle_l	mtp_angle_l	lumbar_extension	lumbar_bending	lumbar_rotation	arm_flex_r	arm_add_r	arm_rot_r	elbow_flex_r	pro_sup_r	wrist_flex_r	wrist_dev_r	arm_flex_l	arm_add_l	arm_rot_l	elbow_flex_l	pro_sup_l	wrist_flex_l	wrist_dev_l
7.039999999999938	-7.958373829393286	-5.866486115553101	41.35131587272883	0	0.9399999999999999	0	45.39568605368731	0.3587239674427471	-18.55139251827307	51.73437850492218	0.9029352413838734	0	0	0	51.68946457198366	6.319294656163334	-20.53641269932883	56.59065071497756	0.9876931808224416	0	0	0	0	0	0	19.88140496745196	-19.88140496745197	3.25093591823277	62.92536267869153	86.74906426843435	0	0	19.88140496745196	-19.88140496745197	3.25093591823277	62.92536267869153	86.74906426810799	0	0
7.059999999999937	-7.872391899237805	-5.786862070671822	41.34483317383226	0	0.9399999999999999	0	44.28339920729556	-0.3595749716230846	-18.32762265819568	50.78480514041645	0.8863620596840082	0	0	0	50.43920806260895	5.831397173296554	-20.04770837918506	55.41878940344869	0.9672403425595238	0	0	0	0	0	0	19.89003165140274	-19.89003165140275	3.252102685553913	62.94091155219465	86.74789750117745	0	0	19.89003165140274	-19.89003165140275	3.252102685553913	62.94091155219465	86.74789750085129	0	0
7.079999999999937	-7.674810714140921	-5.638335091773924	41.26109537720787	0	0.9399999999999999	0	44.02453428230797	-0.2992957784233513	-18.26757258723089	50.48925512985548	0.8812037388954153	0	0	0	49.120361760778	5.278286407438165	-19.81314873293574	54.15320630689894	0.9451517505671454	0	0	0	0	0	0	19.89894667967315	-19.89894667967315	3.253306385552127	62.95694673536008	86.74669380124547	0	0	19.89894667967315	-19.89894667967315	3.253306385552127	62.95694673536008	86.7466938009196	0	0
7.099999999999937	-7.482310959545893	-5.528723941003073	41.15926745352018	0	0.9399999999999999	0	42.79900570917863	-0.8414864115356928	-18.22408245313166	49.42426632480434	0.8626161777503928	0	0	0	47.7604174427951	4.64884613504018	-19.61741547922804	52.93543587057903	0.9238976469199149	0	0	0	0	0	0	19.91001335307823	-19.91001335307824	3.254803340955356	62.97689359203658	86.74519684592457	0	0	19.91001335307823	-19.91001335307824	3.254803340955356	62.97689359203658	86.74519684559903	0	0
7.119999999999936	-7.294035389433844	-5.444536694751641	41.07448987126147	0	0.9399999999999999	0	41.55657627605827	-1.436521496922296	-18.07620446397005	48.36934609429987	0.8442043463821923	0	0	0	46.4749223643166	4.057171097139231	-19.04754362074539	51.72577695041748	0.9027851159369767	0	0	0	0	0	0	19.91807238612912	-19.91807238612912	3.255892093892582	62.99139680809752	86.74410809304723	0	0	19.91807238612912	-19.91807238612912	3.255892093892582	62.99139680809752	86.7441080927219	0	0
7.139999999999936	-7.054759610738494	-5.283399657045553	41.0387413476546	0	0.9399999999999999	0	40.24500811803349	-2.038872092311057	-17.78403421356983	47.45075816080504	0.8281719624736168	0	0	0	45.08665469023935	3.532765749353224	-18.68432365392657	50.59157158511211	0.8829894979186129	0	0	0	0	0	0	19.92768019796429	-19.9276801979643	3.257190087932071	63.00868638888394	86.74281009907915	0	0	19.92768019796429	-19.9276801979643	3.257190087932071	63.00868638888394	86.74281009875406	0	0
7.159999999999935	-6.684205382113488	-5.123883937538382	40.85153051562126	0	0.9399999999999999	0	37.78674283616014	-3.040004070287249	-17.32933278157476	45.54526927943757	0.7949149076336108	0	0	0	43.66938984327084	2.809180836806633	-18.24972692379479	49.38931438575268	0.8620061513339851	0	0	0	0	0	0	19.93807652800763	-19.93807652800763	3.258594635647083	63.02739382407213	86.74140555144143	0	0	19.93807652800763	-19.93807652800763	3.258594635647083	63.02739382407213	86.7414055511166	0	0
7.179999999999935	-6.369749492246155	-4.975508345776642	40.78454108212139	0	0.9399999999999999	0	36.51403132188431	-3.46366144082236	-17.04000817243499	44.17721205063905	0.7710378046353673	0	0	0	42.34421920763673	2.205749079281691	-17.47282715861168	48.31758353651226	0.8433009193195448	0	0	0	0	0	0	19.94613981571885	-19.94613981571885	3.259681665097867	63.04186566553769	86.74031852205037	0	0	19.94613981571885	-19.94613981571885	3.259681665097867	63.04186566553769	86.74031852172577	0	0
7.199999999999934	-6.139112986742682	-4.871435520157055	40.7146324211081	0	0.9399999999999999	0	35.25252995612228	-3.922973878174451	-16.73581283078467	42.85363223523019	0.7479369789435441	0	0	0	41.0101890414489	1.556844114373447	-16.99510454401453	46.86162484922131	0.8178896464533031	0	0	0	0	0	0	19.95484798529251	-19.9548479852925	3.260855659520335	63.05749461126112	86.73914452769246	0	0	19.95484798529251	-19.9548479852925	3.260855659520335	63.05749461126112	86.73914452736807	0	0
7.219999999999934	-5.936938704855869	-4.763477766606854	40.64495268304353	0	0.9399999999999999	0	34.03305060545208	-4.318679290758231	-16.46975007097566	41.85044393825776	0.7304280401439004	0	0	0	39.77609725494865	0.8735287672690102	-16.38932390529583	45.42379646978782	0.7927948071535744	0	0	0	0	0	0	19.96269231720596	-19.96269231720596	3.261912750976656	63.07156537860668	86.73808743629421	0	0	19.96269231720596	-19.96269231720596	3.261912750976656	63.07156537860668	86.73808743597013	0	0
7.239999999999934	-5.541957530918482	-4.55065455981114	40.53037358907704	0	0.9399999999999999	0	33.59744186314767	-4.194819153713974	-16.44104590095888	41.19275829504306	0.7189492602267071	0	0	0	38.33103814671269	0.1693956870861273	-15.67619472876201	44.07800947706482	0.7693063931000451	0	0	0	0	0	0	19.97303554707874	-19.97303554707873	3.263307157006754	63.09012612755739	86.73669303034077	0	0	19.97303554707874	-19.97303554707873	3.263307157006754	63.09012612755739	86.73669303001692	0	0
7.259999999999933	-5.204267675051462	-4.340231372352744	40.4926493225742	0	0.9399999999999999	0	32.2676802281992	-4.557113020321358	-16.02024834743363	39.99251247528861	0.6980010188386936	0	0	0	36.9473224746062	-0.4471894201316533	-15.23716096691068	42.786670311819	0.7467682729065505	0	0	0	0	0	0	19.98253426543188	-19.98253426543188	3.264586463924668	63.10715084997921	86.73541372349318	0	0	19.98253426543188	-19.98253426543188	3.264586463924668	63.10715084997921	86.73541372316959	0	0
7.279999999999933	-4.747571971270753	-4.074836827351172	40.44269291372199	0	0.9399999999999999	0	31.75112591992531	-4.434910078013281	-16.07169995492417	39.31681462654092	0.6862078666294038	0	0	0	35.41976900276956	-1.032841905898094	-14.71203612732117	41.39125752328874	0.722413725322262	0	0	0	0	0	0	19.99290042132906	-19.99290042132906	3.265981457861711	63.1257109855019	86.73401872963287	0	0	19.99290042132906	-19.99290042132906	3.265981457861711	63.1257109855019	86.73401872930945	0	0
7.299999999999932	-4.236491381940356	-3.791602183479821	40.35747583840895	0	0.9399999999999999	0	29.30171641153447	-5.066148752244862	-15.31832378860079	37.20700691716273	0.6493847755167947	0	0	0	33.85190062385438	-1.581648776929789	-14.40545624629039	39.91121697241608	0.6965821446465034	0	0	0	0	0	0	20.00220784148908	-20.00220784148908	3.26723450800321	63.14238270169596	86.7327656795602	0	0	20.00220784148908	-20.00220784148908	3.26723450800321	63.14238270169596	86.73276567923708	0	0
7.319999999999932	-3.8280417844788	-3.608583482147347	40.24007554509276	0	0.9399999999999999	0	27.95408428672739	-5.342745786762406	-14.8315814931321	35.79518648529186	0.6247438605337198	0	0	0	32.40696435084492	-2.060818185051258	-14.0647124465602	38.37806714211572	0.6698236321813698	0	0	0	0	0	0	20.01215342131891	-20.01215342131891	3.268572385501395	63.16017941038787	86.7314278021356	0	0	20.01215342131891	-20.01215342131891	3.268572385501395	63.16017941038787	86.73142780181273	0	0
7.339999999999931	-3.17141107102734	-3.292676454837619	40.23604834096645	0	0.9399999999999999	0	26.37893152951688	-5.610883152369001	-14.27815213665137	34.74871826325396	0.6064795445416672	0	0	0	30.73244793886094	-2.514401650894669	-13.45133712689722	37.22248191178072	0.649654865124607	0	0	0	0	0	0	20.02224114314357	-20.02224114314356	3.269928505265272	63.17821547695344	86.73007168244625	0	0	20.02224114314357	-20.02224114314356	3.269928505265272	63.17821547695344	86.73007168212365	0	0
7.359999999999931	-2.68021485126161	-3.138340960604276	40.17811300817029	0	0.9399999999999999	0	25.03801378531669	-5.853031039146642	-13.64366684800747	33.37409626532466	0.5824878647074584	0	0	0	29.25456570615185	-2.937915182994001	-13.07970871172994	35.65912804972027	0.6223691928578828	0	0	0	0	0	0	20.0289349572712	-20.02893495727119	3.270827382063498	63.19016774261106	86.72917280569739	0	0	20.0289349572712	-20.02893495727119	3.270827382063498	63.19016774261106	86.72917280537492	0	0
7.379999999999931	-2.158054749836952	-2.975885546694338	40.22087089259499	0	0.9399999999999999	0	22.70016634025202	-6.298974373575378	-13.3333156648158	31.10571543981829	0.5428971506132652	0	0	0	27.73913414721806	-3.276307280890721	-12.71354453929639	34.02235999666902	0.5938022012406814	0	0	0	0	0	0	20.03777249646304	-20.03777249646303	3.272015368019544	63.20596552271937	86.72798481980666	0	0	20.03777249646304	-20.03777249646303	3.272015368019544	63.20596552271937	86.72798481948439	0	0
7.39999999999993	-1.615835977870931	-2.873570949805361	40.27967178139303	0	0.9399999999999999	0	22.21517336546895	-6.003475315511844	-13.6065619517334	29.848570652958	0.5209558349082708	0	0	0	26.20771691878835	-3.636547853069869	-12.23069513582732	32.41355234598038	0.56572321070489	0	0	0	0	0	0	20.04645670995576	-20.04645670995575	3.273176930916152	63.22139737753186	86.72682325697392	0	0	20.04645670995576	-20.04645670995575	3.273176930916152	63.22139737753186	86.72682325665177	0	0
7.41999999999993	-1.086094545341518	-2.70988195586044	40.32928212720557	0	0.9399999999999999	0	20.7163100387323	-5.972729559275949	-13.46909188677202	28.09204083254972	0.4902986061326816	0	0	0	24.63953814030578	-3.909901909246477	-11.83698282075128	30.59145594387085	0.5339216291993359	0	0	0	0	0	0	20.05360271826829	-20.05360271826829	3.274134858562916	63.2341288599869	86.72586532937979	0	0	20.05360271826829	-20.05360271826829	3.274134858562916	63.2341288599869	86.72586532905787	0	0
7.439999999999929	-0.7899740900846519	-2.613991172285091	40.36219711538118	0	0.9399999999999999	0	20.42903878743759	-5.83082410872402	-13.54918651478458	27.29218288763346	0.4763384514456575	0	0	0	22.2053012572392	-4.208180086330408	-11.11875537107121	27.44131513243158	0.4789413001382748	0	0	0	0	0	0	20.06229787144944	-20.06229787144943	3.275301276513592	63.2496314471781	86.72469891149322	0	0	20.06229787144944	-20.06229787144943	3.275301276513592	63.2496314471781	86.7246989111715	0	0
7.459999999999929	-0.193647689864876	-2.39284850324391	40.42103376232459	0	0.9399999999999999	0	19.80908164234992	-5.627078740125965	-13.71304759058237	26.39454033435223	0.4606716333848914	0	0	0	21.60114162668333	-4.415227130872386	-11.01455173247098	27.02764381658031	0.4717213736556127	0	0	0	0	0	0	20.07098337846991	-20.07098337846991	3.27646749645104	63.26513374438973	86.72353269161992	0	0	20.07098337846991	-20.07098337846991	3.27646749645104	63.26513374438973	86.72353269129836	0	0
7.479999999999928	0.3226991902017939	-2.188236051325153	40.49916924153595	0	0.9399999999999999	0	16.4915540489894	-5.778773741129796	-12.24177173293647	22.89518360479904	0.3995963367523675	0	0	0	20.02291203318366	-4.664924431605877	-10.7892292633531	24.82999915891504	0.4333652385904902	0	0	0	0	0	0	20.00167999144042	-20.00167999144042	3.26865958170019	63.16467460400133	86.73134060595358	0	0	20.00167999144042	-20.00167999144042	3.26865958170019	63.16467460400133	86.73134060563052	0	0
7.499999999999928	0.919457915043841	-1.944074964460015	40.5849831775039	0	0.9399999999999999	0	15.85724374201211	-5.588243592124062	-12.4474447400849	21.82624512906106	0.3809398408494902	0	0	0	18.36846314867332	-4.866844335936814	-10.53949866484519	23.14710940983855	0.4039932715210443	0	0	0	0	0	0	20.01392342708323	-20.01392342708323	3.270292183899749	63.18635363783875	86.72970800384365	0	0	20.01392342708323	-20.01392342708323	3.270292183899749	63.18635363783875	86.72970800352084	0	0
